<svg xmlns="http://www.w3.org/2000/svg" xmlns:xlink="http://www.w3.org/1999/xlink" width="1080" zoomAndPan="magnify" viewBox="0 0 810 809.999993" height="1080" preserveAspectRatio="xMidYMid meet" version="1.0"><defs><clipPath id="e504e5377b"><path d="M 17 177 L 793 177 L 793 634.664062 L 17 634.664062 Z M 17 177 " clip-rule="nonzero"/></clipPath></defs><g clip-path="url(#e504e5377b)"><path fill="#cc0000" d="M 640.351562 603.9375 C 573.117188 603.9375 518.421875 549.242188 518.421875 482.007812 C 518.421875 431.492188 549.300781 388.070312 593.164062 369.582031 L 628.4375 494.207031 C 630.128906 500.199219 635.585938 504.105469 641.511719 504.105469 C 642.742188 504.105469 643.988281 503.933594 645.21875 503.585938 C 652.445312 501.542969 656.652344 494.023438 654.609375 486.796875 L 619.261719 361.9375 C 626.121094 360.738281 633.15625 360.078125 640.351562 360.078125 C 707.59375 360.078125 762.28125 414.773438 762.28125 482.007812 C 762.28125 549.242188 707.59375 603.9375 640.351562 603.9375 Z M 397.957031 449.496094 C 397.761719 449.378906 397.570312 449.25 397.367188 449.140625 L 408.261719 409.929688 L 418.933594 409.929688 C 423.9375 409.929688 428 405.875 428 400.867188 C 428 395.863281 423.9375 391.800781 418.933594 391.800781 L 382.683594 391.800781 C 377.671875 391.800781 373.609375 395.863281 373.609375 400.867188 C 373.609375 405.875 377.671875 409.929688 382.683594 409.929688 L 389.445312 409.929688 L 380.023438 443.847656 C 379.851562 443.832031 379.675781 443.832031 379.503906 443.816406 L 323.617188 286.050781 L 544.140625 286.050781 Z M 169.667969 602.867188 C 102.4375 602.867188 47.738281 548.167969 47.738281 480.933594 C 47.738281 413.710938 102.4375 359.003906 169.667969 359.003906 C 187.421875 359.003906 204.289062 362.855469 219.523438 369.710938 L 152.597656 477.433594 C 143.792969 491.601562 150.175781 503.097656 166.859375 503.097656 L 289.542969 503.097656 C 279.085938 559.78125 229.328125 602.867188 169.667969 602.867188 Z M 291.464844 475.902344 L 185.558594 475.902344 L 242.9375 383.546875 C 271.214844 404.875 289.925781 438.207031 291.464844 475.902344 Z M 403.828125 485.96875 C 403.828125 499.957031 393.222656 511.5 379.628906 512.988281 C 378.644531 513.101562 377.648438 513.164062 376.640625 513.164062 C 371.234375 513.164062 366.210938 511.5625 361.972656 508.832031 C 359.535156 507.269531 357.359375 505.335938 355.535156 503.097656 C 351.734375 498.417969 349.445312 492.460938 349.445312 485.96875 C 349.445312 482.410156 350.148438 479.019531 351.402344 475.902344 C 352.53125 473.070312 354.125 470.480469 356.089844 468.21875 C 360.917969 462.632812 367.96875 459.042969 375.867188 458.820312 C 376.121094 458.8125 376.378906 458.773438 376.640625 458.773438 C 379.675781 458.773438 382.589844 459.300781 385.3125 460.226562 C 386.082031 460.484375 386.839844 460.769531 387.582031 461.09375 C 389.570312 461.976562 391.425781 463.089844 393.128906 464.398438 C 399.085938 468.96875 403.101562 475.925781 403.726562 483.839844 C 403.773438 484.546875 403.828125 485.25 403.828125 485.96875 Z M 295.898438 298.304688 L 350.597656 452.707031 C 343.261719 458.457031 337.886719 466.570312 335.597656 475.902344 L 321.683594 475.902344 C 320.097656 427.398438 295.71875 384.589844 258.914062 357.828125 Z M 640.351562 329.859375 C 630.308594 329.859375 620.503906 330.863281 610.996094 332.734375 L 574.386719 203.417969 C 609.148438 201.335938 634.902344 200.269531 652.019531 203.464844 C 668.34375 206.507812 673.890625 212.144531 674.828125 226.660156 C 675.75 240.960938 672.46875 246.257812 669.914062 248.984375 C 664.390625 254.910156 651.980469 257.964844 633.046875 258.050781 C 626.363281 258.082031 620.984375 263.519531 621.015625 270.191406 C 621.046875 276.851562 626.449219 282.222656 633.09375 282.222656 C 633.117188 282.222656 633.140625 282.222656 633.148438 282.222656 C 659.753906 282.097656 677.054688 276.78125 687.585938 265.484375 C 696.382812 256.0625 700.097656 242.847656 698.945312 225.097656 C 697.296875 199.574219 683.398438 184.726562 656.453125 179.703125 C 634.402344 175.582031 603.136719 177.414062 560.132812 180.078125 C 558.074219 179.652344 555.886719 179.695312 553.71875 180.308594 C 546.492188 182.351562 542.292969 189.871094 544.335938 197.097656 L 561.820312 258.855469 L 313.984375 258.855469 L 304.65625 232.527344 L 347.882812 232.527344 C 357.894531 232.527344 366.140625 225.664062 366.304688 217.199219 C 366.480469 208.734375 358.550781 200.867188 348.609375 199.628906 L 239.601562 186.011719 C 229.660156 184.773438 221.496094 192.378906 221.359375 203.007812 L 221.234375 213.277344 C 221.101562 223.914062 229.109375 232.527344 239.121094 232.527344 L 272.601562 232.527344 L 284.277344 265.484375 L 235.601562 343.832031 C 215.640625 334.199219 193.273438 328.796875 169.667969 328.796875 C 85.773438 328.796875 17.523438 397.046875 17.523438 480.933594 C 17.523438 564.832031 85.773438 633.082031 169.667969 633.082031 C 246.03125 633.082031 309.414062 576.523438 320.175781 503.097656 L 337.988281 503.097656 C 341.988281 512.089844 349.035156 519.410156 357.808594 523.796875 L 347.84375 559.6875 L 339.441406 559.6875 C 334.785156 559.6875 331.015625 563.457031 331.015625 568.121094 C 331.015625 572.777344 334.785156 576.554688 339.441406 576.554688 L 373.175781 576.554688 C 377.832031 576.554688 381.609375 572.777344 381.609375 568.121094 C 381.609375 563.457031 377.832031 559.6875 373.175781 559.6875 L 366.660156 559.6875 L 375.402344 528.207031 C 375.820312 528.222656 376.222656 528.273438 376.640625 528.273438 C 399.960938 528.273438 418.945312 509.296875 418.945312 485.96875 C 418.945312 480.414062 417.832031 475.113281 415.875 470.253906 L 572.1875 295.488281 L 584.898438 340.378906 C 528.355469 362.59375 488.210938 417.679688 488.210938 482.007812 C 488.210938 565.902344 556.457031 634.15625 640.351562 634.15625 C 724.238281 634.15625 792.5 565.902344 792.5 482.007812 C 792.5 398.113281 724.238281 329.859375 640.351562 329.859375 " fill-opacity="1" fill-rule="nonzero"/></g></svg>